<svg aria-hidden="true" style="position: absolute; width: 0; height: 0; overflow: hidden;" version="1.1" xmlns="http://www.w3.org/2000/svg" xmlns:xlink="http://www.w3.org/1999/xlink">
<defs>
<symbol id="icon-chevron-small-right" viewBox="0 0 20 20">
<title>chevron-small-right</title>
<path d="M11 10l-3.141-3.42c-0.268-0.27-0.268-0.707 0-0.978 0.268-0.27 0.701-0.27 0.969 0l3.83 3.908c0.268 0.271 0.268 0.709 0 0.979l-3.83 3.908c-0.267 0.272-0.701 0.27-0.969 0s-0.268-0.707 0-0.978l3.141-3.419z"></path>
</symbol>
<symbol id="icon-chevron-with-circle-up" viewBox="0 0 20 20">
<title>chevron-with-circle-up</title>
<path d="M10.359 7.785c-0.199-0.196-0.52-0.196-0.717 0l-2.864 2.807c-0.199 0.195-0.198 0.514 0 0.71 0.197 0.196 0.518 0.196 0.717 0l2.505-2.302 2.506 2.302c0.198 0.196 0.518 0.196 0.718 0 0.197-0.196 0.197-0.515 0-0.71l-2.865-2.807zM10 0.4c-5.302 0-9.6 4.298-9.6 9.6 0 5.303 4.298 9.6 9.6 9.6s9.6-4.297 9.6-9.6c0-5.302-4.298-9.6-9.6-9.6zM10 18.354c-4.615 0-8.354-3.74-8.354-8.354s3.739-8.354 8.354-8.354c4.613 0 8.354 3.74 8.354 8.354s-3.741 8.354-8.354 8.354z"></path>
</symbol>
<symbol id="icon-check" viewBox="0 0 20 20">
<title>check</title>
<path d="M8.294 16.998c-0.435 0-0.847-0.203-1.111-0.553l-3.573-4.721c-0.465-0.613-0.344-1.486 0.27-1.951 0.615-0.467 1.488-0.344 1.953 0.27l2.351 3.104 5.911-9.492c0.407-0.652 1.267-0.852 1.921-0.445s0.854 1.266 0.446 1.92l-6.984 11.21c-0.242 0.391-0.661 0.635-1.12 0.656-0.022 0.002-0.042 0.002-0.064 0.002z"></path>
</symbol>
<symbol id="icon-cross" viewBox="0 0 20 20">
<title>cross</title>
<path d="M14.348 14.849c-0.469 0.469-1.229 0.469-1.697 0l-2.651-3.030-2.651 3.029c-0.469 0.469-1.229 0.469-1.697 0-0.469-0.469-0.469-1.229 0-1.697l2.758-3.15-2.759-3.152c-0.469-0.469-0.469-1.228 0-1.697s1.228-0.469 1.697 0l2.652 3.031 2.651-3.031c0.469-0.469 1.228-0.469 1.697 0s0.469 1.229 0 1.697l-2.758 3.152 2.758 3.15c0.469 0.469 0.469 1.229 0 1.698z"></path>
</symbol>
<symbol id="icon-mail" viewBox="0 0 20 20">
<title>mail</title>
<path d="M1.574 5.286c0.488 0.262 7.248 3.894 7.5 4.029s0.578 0.199 0.906 0.199c0.328 0 0.654-0.064 0.906-0.199s7.012-3.767 7.5-4.029c0.489-0.263 0.951-1.286 0.054-1.286h-16.919c-0.897 0-0.435 1.023 0.053 1.286zM18.613 7.489c-0.555 0.289-7.387 3.849-7.727 4.027s-0.578 0.199-0.906 0.199-0.566-0.021-0.906-0.199-7.133-3.739-7.688-4.028c-0.39-0.204-0.386 0.035-0.386 0.219s0 7.293 0 7.293c0 0.42 0.566 1 1 1h16c0.434 0 1-0.58 1-1 0 0 0-7.108 0-7.292s0.004-0.423-0.387-0.219z"></path>
</symbol>
<symbol id="icon-menu" viewBox="0 0 20 20">
<title>menu</title>
<path d="M16.4 9h-12.8c-0.552 0-0.6 0.447-0.6 1s0.048 1 0.6 1h12.8c0.552 0 0.6-0.447 0.6-1s-0.048-1-0.6-1zM16.4 13h-12.8c-0.552 0-0.6 0.447-0.6 1s0.048 1 0.6 1h12.8c0.552 0 0.6-0.447 0.6-1s-0.048-1-0.6-1zM3.6 7h12.8c0.552 0 0.6-0.447 0.6-1s-0.048-1-0.6-1h-12.8c-0.552 0-0.6 0.447-0.6 1s0.048 1 0.6 1z"></path>
</symbol>
<symbol id="icon-facebook-with-circle" viewBox="0 0 20 20">
<title>facebook-with-circle</title>
<path d="M10 0.4c-5.302 0-9.6 4.298-9.6 9.6s4.298 9.6 9.6 9.6 9.6-4.298 9.6-9.6-4.298-9.6-9.6-9.6zM12.274 7.034h-1.443c-0.171 0-0.361 0.225-0.361 0.524v1.042h1.805l-0.273 1.486h-1.532v4.461h-1.703v-4.461h-1.545v-1.486h1.545v-0.874c0-1.254 0.87-2.273 2.064-2.273h1.443v1.581z"></path>
</symbol>
<symbol id="icon-google-with-circle" viewBox="0 0 20 20">
<title>google-with-circle</title>
<path d="M10 0.4c-5.302 0-9.6 4.298-9.6 9.6s4.298 9.6 9.6 9.6 9.6-4.298 9.6-9.6-4.298-9.6-9.6-9.6zM9.447 14.121c-0.603 0.293-1.252 0.324-1.503 0.324-0.048 0-0.075 0-0.075 0s-0.023 0-0.054 0c-0.392 0-2.343-0.090-2.343-1.867 0-1.746 2.125-1.883 2.776-1.883h0.017c-0.376-0.502-0.298-1.008-0.298-1.008-0.033 0.002-0.081 0.004-0.14 0.004-0.245 0-0.718-0.039-1.124-0.301-0.498-0.32-0.75-0.865-0.75-1.619 0-2.131 2.327-2.217 2.35-2.219h2.324v0.051c0 0.26-0.467 0.311-0.785 0.354-0.108 0.016-0.325 0.037-0.386 0.068 0.589 0.315 0.684 0.809 0.684 1.545 0 0.838-0.328 1.281-0.676 1.592-0.216 0.193-0.385 0.344-0.385 0.547 0 0.199 0.232 0.402 0.502 0.639 0.441 0.389 1.046 0.918 1.046 1.811 0 0.923-0.397 1.583-1.18 1.962zM14.5 10h-1.5v1.5h-1v-1.5h-1.5v-1h1.5v-1.5h1v1.5h1.5v1zM8.223 11.15c-0.052 0-0.104 0.002-0.157 0.006-0.444 0.033-0.854 0.199-1.15 0.469-0.294 0.266-0.444 0.602-0.423 0.941 0.045 0.711 0.808 1.127 1.735 1.061 0.912-0.066 1.52-0.592 1.476-1.303-0.042-0.668-0.623-1.174-1.481-1.174zM9.097 7.285c-0.242-0.85-0.632-1.102-1.238-1.102-0.065 0-0.131 0.010-0.194 0.027-0.263 0.075-0.472 0.294-0.588 0.62-0.119 0.33-0.126 0.674-0.024 1.066 0.185 0.701 0.683 1.209 1.185 1.209 0.066 0 0.132-0.008 0.194-0.027 0.549-0.154 0.893-0.992 0.665-1.793z"></path>
</symbol>
<symbol id="icon-instagram-with-circle" viewBox="0 0 20 20">
<title>instagram-with-circle</title>
<path d="M13 10c0 1.657-1.343 3-3 3s-3-1.343-3-3c0-0.171 0.018-0.338 0.049-0.5h-1.049v3.997c0 0.278 0.225 0.503 0.503 0.503h6.995c0.277 0 0.502-0.225 0.502-0.503v-3.997h-1.049c0.031 0.162 0.049 0.329 0.049 0.5zM10 12c1.104 0 2-0.896 2-2s-0.896-2-2-2-2 0.896-2 2 0.896 2 2 2zM12.4 7.9h1.199c0.166 0 0.301-0.135 0.301-0.3v-1.199c0-0.166-0.135-0.301-0.301-0.301h-1.199c-0.166 0-0.301 0.135-0.301 0.301v1.199c0.001 0.165 0.136 0.3 0.301 0.3zM10 0.4c-5.302 0-9.6 4.298-9.6 9.6s4.298 9.6 9.6 9.6c5.302 0 9.6-4.298 9.6-9.6s-4.298-9.6-9.6-9.6zM15 13.889c0 0.611-0.5 1.111-1.111 1.111h-7.778c-0.611 0-1.111-0.5-1.111-1.111v-7.778c0-0.611 0.5-1.111 1.111-1.111h7.778c0.611 0 1.111 0.5 1.111 1.111v7.778z"></path>
</symbol>
<symbol id="icon-linkedin-with-circle" viewBox="0 0 20 20">
<title>linkedin-with-circle</title>
<path d="M10 0.4c-5.302 0-9.6 4.298-9.6 9.6s4.298 9.6 9.6 9.6 9.6-4.298 9.6-9.6-4.298-9.6-9.6-9.6zM7.65 13.979h-1.944v-6.256h1.944v6.256zM6.666 6.955c-0.614 0-1.011-0.435-1.011-0.973 0-0.549 0.409-0.971 1.036-0.971s1.011 0.422 1.023 0.971c0 0.538-0.396 0.973-1.048 0.973zM14.75 13.979h-1.944v-3.467c0-0.807-0.282-1.355-0.985-1.355-0.537 0-0.856 0.371-0.997 0.728-0.052 0.127-0.065 0.307-0.065 0.486v3.607h-1.945v-4.26c0-0.781-0.025-1.434-0.051-1.996h1.689l0.089 0.869h0.039c0.256-0.408 0.883-1.010 1.932-1.010 1.279 0 2.238 0.857 2.238 2.699v3.699z"></path>
</symbol>
<symbol id="icon-linkedin" viewBox="0 0 20 20">
<title>linkedin</title>
<path d="M5 3c0 1.062-0.71 1.976-2.001 1.976-1.215 0-1.999-0.862-1.999-1.924 0-1.090 0.76-2.052 2-2.052s1.976 0.91 2 2zM1 19v-13h4v13h-4z"></path>
<path d="M7 10.444c0-1.545-0.051-2.836-0.102-3.951h3.594l0.178 1.723h0.076c0.506-0.811 1.746-2 3.822-2 2.532 0 4.432 1.695 4.432 5.342v7.442h-4v-6.861c0-1.594-0.607-2.81-2-2.81-1.062 0-1.594 0.86-1.873 1.569-0.102 0.254-0.127 0.608-0.127 0.963v7.139h-4v-8.556z"></path>
</symbol>
<symbol id="icon-pinterest-with-circle" viewBox="0 0 20 20">
<title>pinterest-with-circle</title>
<path d="M10 0.4c-5.302 0-9.6 4.298-9.6 9.6s4.298 9.6 9.6 9.6 9.6-4.298 9.6-9.6-4.298-9.6-9.6-9.6zM10.657 12.275c-0.616-0.047-0.874-0.352-1.356-0.644-0.265 1.391-0.589 2.725-1.549 3.422-0.297-2.104 0.434-3.682 0.774-5.359-0.579-0.975 0.069-2.936 1.291-2.454 1.503 0.596-1.302 3.625 0.581 4.004 1.966 0.394 2.769-3.412 1.55-4.648-1.762-1.787-5.127-0.041-4.713 2.517 0.1 0.625 0.747 0.815 0.258 1.678-1.127-0.25-1.464-1.139-1.42-2.324 0.069-1.94 1.743-3.299 3.421-3.486 2.123-0.236 4.115 0.779 4.391 2.777 0.309 2.254-0.959 4.693-3.228 4.517z"></path>
</symbol>
<symbol id="icon-pinterest" viewBox="0 0 20 20">
<title>pinterest</title>
<path d="M8.617 13.227c-0.526 2.754-1.167 5.394-3.068 6.773-0.586-4.162 0.861-7.287 1.534-10.605-1.147-1.93 0.138-5.812 2.555-4.855 2.975 1.176-2.576 7.172 1.15 7.922 3.891 0.781 5.479-6.75 3.066-9.199-3.485-3.538-10.146-0.083-9.326 4.982 0.199 1.238 1.478 1.613 0.511 3.322-2.231-0.494-2.897-2.254-2.811-4.6 0.138-3.84 3.449-6.527 6.771-6.9 4.201-0.471 8.144 1.543 8.689 5.494 0.613 4.461-1.896 9.293-6.389 8.945-1.218-0.095-1.728-0.699-2.682-1.279z"></path>
</symbol>
<symbol id="icon-twitter-with-circle" viewBox="0 0 20 20">
<title>twitter-with-circle</title>
<path d="M10 0.4c-5.302 0-9.6 4.298-9.6 9.6s4.298 9.6 9.6 9.6 9.6-4.298 9.6-9.6-4.298-9.6-9.6-9.6zM13.905 8.264c0.004 0.082 0.005 0.164 0.005 0.244 0 2.5-1.901 5.381-5.379 5.381-1.068 0-2.062-0.312-2.898-0.85 0.147 0.018 0.298 0.025 0.451 0.025 0.886 0 1.701-0.301 2.348-0.809-0.827-0.016-1.525-0.562-1.766-1.312 0.115 0.021 0.233 0.033 0.355 0.033 0.172 0 0.34-0.023 0.498-0.066-0.865-0.174-1.517-0.938-1.517-1.854v-0.023c0.255 0.141 0.547 0.227 0.857 0.237-0.508-0.34-0.841-0.918-0.841-1.575 0-0.346 0.093-0.672 0.256-0.951 0.933 1.144 2.325 1.896 3.897 1.977-0.033-0.139-0.049-0.283-0.049-0.432 0-1.043 0.846-1.891 1.891-1.891 0.543 0 1.035 0.23 1.38 0.598 0.431-0.086 0.835-0.242 1.2-0.459-0.141 0.441-0.44 0.812-0.831 1.047 0.383-0.047 0.747-0.148 1.086-0.299-0.253 0.379-0.574 0.713-0.943 0.979z"></path>
</symbol>
<symbol id="icon-twitter" viewBox="0 0 20 20">
<title>twitter</title>
<path d="M17.316 6.246c0.008 0.162 0.011 0.326 0.011 0.488 0 4.99-3.797 10.742-10.74 10.742-2.133 0-4.116-0.625-5.787-1.697 0.296 0.035 0.596 0.053 0.9 0.053 1.77 0 3.397-0.604 4.688-1.615-1.651-0.031-3.046-1.121-3.526-2.621 0.23 0.043 0.467 0.066 0.71 0.066 0.345 0 0.679-0.045 0.995-0.131-1.727-0.348-3.028-1.873-3.028-3.703 0-0.016 0-0.031 0-0.047 0.509 0.283 1.092 0.453 1.71 0.473-1.013-0.678-1.68-1.832-1.68-3.143 0-0.691 0.186-1.34 0.512-1.898 1.861 2.285 4.644 3.787 7.781 3.945-0.064-0.277-0.097-0.564-0.097-0.861 0-2.084 1.689-3.773 3.774-3.773 1.086 0 2.067 0.457 2.756 1.191 0.859-0.17 1.667-0.484 2.397-0.916-0.282 0.881-0.881 1.621-1.66 2.088 0.764-0.092 1.49-0.293 2.168-0.594-0.506 0.758-1.146 1.422-1.884 1.953z"></path>
</symbol>
</defs>
</svg>
